<mxfile host="app.diagrams.net" agent="Mozilla/5.0 (Windows NT 10.0; Win64; x64) AppleWebKit/537.36 (KHTML, like Gecko) Chrome/134.0.0.0 Safari/537.36" version="26.2.4">
  <diagram name="Página-1" id="Bw-3vuzHvK8cUdGuyqDx">
    <mxGraphModel dx="4605" dy="-2647" grid="1" gridSize="10" guides="1" tooltips="1" connect="1" arrows="1" fold="1" page="1" pageScale="1" pageWidth="583" pageHeight="827" background="none" math="0" shadow="1">
      <root>
        <mxCell id="0" />
        <mxCell id="1" parent="0" />
        <mxCell id="Lj_GNJjV4m9-QCivZ2Cv-81" value="" style="edgeStyle=orthogonalEdgeStyle;rounded=0;orthogonalLoop=1;jettySize=auto;html=1;" parent="1" source="Lj_GNJjV4m9-QCivZ2Cv-36" target="Lj_GNJjV4m9-QCivZ2Cv-80" edge="1">
          <mxGeometry relative="1" as="geometry" />
        </mxCell>
        <mxCell id="Lj_GNJjV4m9-QCivZ2Cv-36" value="Empreendedor/Utilizador" style="shape=umlActor;verticalLabelPosition=bottom;verticalAlign=top;html=1;outlineConnect=0;labelBackgroundColor=none;" parent="1" vertex="1">
          <mxGeometry x="-1570" y="4534" width="30" height="60" as="geometry" />
        </mxCell>
        <mxCell id="Lj_GNJjV4m9-QCivZ2Cv-84" style="edgeStyle=orthogonalEdgeStyle;rounded=0;orthogonalLoop=1;jettySize=auto;html=1;exitX=0.5;exitY=1;exitDx=0;exitDy=0;" parent="1" source="Lj_GNJjV4m9-QCivZ2Cv-80" target="Lj_GNJjV4m9-QCivZ2Cv-83" edge="1">
          <mxGeometry relative="1" as="geometry" />
        </mxCell>
        <mxCell id="Lj_GNJjV4m9-QCivZ2Cv-85" style="edgeStyle=orthogonalEdgeStyle;rounded=0;orthogonalLoop=1;jettySize=auto;html=1;exitX=0.5;exitY=0;exitDx=0;exitDy=0;entryX=0.5;entryY=1;entryDx=0;entryDy=0;" parent="1" source="Lj_GNJjV4m9-QCivZ2Cv-80" target="Lj_GNJjV4m9-QCivZ2Cv-82" edge="1">
          <mxGeometry relative="1" as="geometry" />
        </mxCell>
        <mxCell id="Lj_GNJjV4m9-QCivZ2Cv-99" style="edgeStyle=orthogonalEdgeStyle;rounded=0;orthogonalLoop=1;jettySize=auto;html=1;exitX=1;exitY=1;exitDx=0;exitDy=0;entryX=0;entryY=0.5;entryDx=0;entryDy=0;" parent="1" source="Lj_GNJjV4m9-QCivZ2Cv-80" target="Lj_GNJjV4m9-QCivZ2Cv-94" edge="1">
          <mxGeometry relative="1" as="geometry" />
        </mxCell>
        <mxCell id="Lj_GNJjV4m9-QCivZ2Cv-102" style="edgeStyle=orthogonalEdgeStyle;rounded=0;orthogonalLoop=1;jettySize=auto;html=1;exitX=1;exitY=0.5;exitDx=0;exitDy=0;" parent="1" source="Lj_GNJjV4m9-QCivZ2Cv-80" target="Lj_GNJjV4m9-QCivZ2Cv-100" edge="1">
          <mxGeometry relative="1" as="geometry" />
        </mxCell>
        <mxCell id="Lj_GNJjV4m9-QCivZ2Cv-104" style="edgeStyle=orthogonalEdgeStyle;rounded=0;orthogonalLoop=1;jettySize=auto;html=1;exitX=1;exitY=0.5;exitDx=0;exitDy=0;entryX=0;entryY=0.5;entryDx=0;entryDy=0;" parent="1" source="Lj_GNJjV4m9-QCivZ2Cv-80" target="Lj_GNJjV4m9-QCivZ2Cv-101" edge="1">
          <mxGeometry relative="1" as="geometry" />
        </mxCell>
        <mxCell id="Lj_GNJjV4m9-QCivZ2Cv-80" value="Login" style="ellipse;whiteSpace=wrap;html=1;labelBackgroundColor=none;fillColor=#d5e8d4;strokeColor=#82b366;" parent="1" vertex="1">
          <mxGeometry x="-1456" y="4529" width="90" height="70" as="geometry" />
        </mxCell>
        <mxCell id="Lj_GNJjV4m9-QCivZ2Cv-88" style="edgeStyle=orthogonalEdgeStyle;rounded=0;orthogonalLoop=1;jettySize=auto;html=1;exitX=0.5;exitY=0;exitDx=0;exitDy=0;entryX=0.5;entryY=1;entryDx=0;entryDy=0;dashed=1;" parent="1" source="Lj_GNJjV4m9-QCivZ2Cv-82" target="Lj_GNJjV4m9-QCivZ2Cv-86" edge="1">
          <mxGeometry relative="1" as="geometry" />
        </mxCell>
        <mxCell id="Lj_GNJjV4m9-QCivZ2Cv-92" value="&amp;lt;&amp;lt;incluir&amp;gt;&amp;gt;" style="edgeLabel;html=1;align=center;verticalAlign=middle;resizable=0;points=[];" parent="Lj_GNJjV4m9-QCivZ2Cv-88" vertex="1" connectable="0">
          <mxGeometry x="-0.2571" y="-1" relative="1" as="geometry">
            <mxPoint as="offset" />
          </mxGeometry>
        </mxCell>
        <mxCell id="Lj_GNJjV4m9-QCivZ2Cv-89" style="edgeStyle=orthogonalEdgeStyle;rounded=0;orthogonalLoop=1;jettySize=auto;html=1;exitX=1;exitY=0;exitDx=0;exitDy=0;entryX=0;entryY=0.5;entryDx=0;entryDy=0;dashed=1;" parent="1" source="Lj_GNJjV4m9-QCivZ2Cv-82" target="Lj_GNJjV4m9-QCivZ2Cv-87" edge="1">
          <mxGeometry relative="1" as="geometry" />
        </mxCell>
        <mxCell id="Lj_GNJjV4m9-QCivZ2Cv-93" value="&amp;lt;&amp;lt;incluir&amp;gt;&amp;gt;" style="edgeLabel;html=1;align=center;verticalAlign=middle;resizable=0;points=[];" parent="Lj_GNJjV4m9-QCivZ2Cv-89" vertex="1" connectable="0">
          <mxGeometry x="0.6321" y="2" relative="1" as="geometry">
            <mxPoint x="-16" y="17" as="offset" />
          </mxGeometry>
        </mxCell>
        <mxCell id="Lj_GNJjV4m9-QCivZ2Cv-91" style="edgeStyle=orthogonalEdgeStyle;rounded=0;orthogonalLoop=1;jettySize=auto;html=1;exitX=1;exitY=0.5;exitDx=0;exitDy=0;" parent="1" source="Lj_GNJjV4m9-QCivZ2Cv-82" target="Lj_GNJjV4m9-QCivZ2Cv-90" edge="1">
          <mxGeometry relative="1" as="geometry" />
        </mxCell>
        <mxCell id="Lj_GNJjV4m9-QCivZ2Cv-82" value="Cadastro de login" style="ellipse;whiteSpace=wrap;html=1;labelBackgroundColor=none;strokeColor=#B9E0A5;" parent="1" vertex="1">
          <mxGeometry x="-1456" y="4419" width="90" height="70" as="geometry" />
        </mxCell>
        <mxCell id="Lj_GNJjV4m9-QCivZ2Cv-96" style="edgeStyle=orthogonalEdgeStyle;rounded=0;orthogonalLoop=1;jettySize=auto;html=1;exitX=1;exitY=0.5;exitDx=0;exitDy=0;dashed=1;entryX=0;entryY=0.5;entryDx=0;entryDy=0;" parent="1" source="Lj_GNJjV4m9-QCivZ2Cv-83" target="Lj_GNJjV4m9-QCivZ2Cv-95" edge="1">
          <mxGeometry relative="1" as="geometry" />
        </mxCell>
        <mxCell id="Lj_GNJjV4m9-QCivZ2Cv-97" value="&amp;lt;&amp;lt;incluir&amp;gt;&amp;gt;" style="edgeLabel;html=1;align=center;verticalAlign=middle;resizable=0;points=[];" parent="Lj_GNJjV4m9-QCivZ2Cv-96" vertex="1" connectable="0">
          <mxGeometry x="-0.28" relative="1" as="geometry">
            <mxPoint as="offset" />
          </mxGeometry>
        </mxCell>
        <mxCell id="Lj_GNJjV4m9-QCivZ2Cv-83" value="Recuperação de senha" style="ellipse;whiteSpace=wrap;html=1;labelBackgroundColor=none;strokeColor=#B9E0A5;" parent="1" vertex="1">
          <mxGeometry x="-1434" y="4739" width="90" height="70" as="geometry" />
        </mxCell>
        <mxCell id="Lj_GNJjV4m9-QCivZ2Cv-86" value="Verificação de senha" style="ellipse;whiteSpace=wrap;html=1;labelBackgroundColor=none;strokeColor=#97D077;" parent="1" vertex="1">
          <mxGeometry x="-1456" y="4289" width="90" height="70" as="geometry" />
        </mxCell>
        <mxCell id="Lj_GNJjV4m9-QCivZ2Cv-98" style="edgeStyle=orthogonalEdgeStyle;rounded=0;orthogonalLoop=1;jettySize=auto;html=1;exitX=1;exitY=0.5;exitDx=0;exitDy=0;" parent="1" source="Lj_GNJjV4m9-QCivZ2Cv-87" target="Lj_GNJjV4m9-QCivZ2Cv-90" edge="1">
          <mxGeometry relative="1" as="geometry" />
        </mxCell>
        <mxCell id="Lj_GNJjV4m9-QCivZ2Cv-87" value="Criação de pergunta de segurança" style="ellipse;whiteSpace=wrap;html=1;labelBackgroundColor=none;strokeColor=#97D077;" parent="1" vertex="1">
          <mxGeometry x="-1294" y="4369" width="90" height="70" as="geometry" />
        </mxCell>
        <mxCell id="Lj_GNJjV4m9-QCivZ2Cv-90" value="SGBD" style="shape=umlActor;verticalLabelPosition=bottom;verticalAlign=top;html=1;outlineConnect=0;labelBackgroundColor=none;" parent="1" vertex="1">
          <mxGeometry x="-815" y="4529" width="30" height="60" as="geometry" />
        </mxCell>
        <mxCell id="Lj_GNJjV4m9-QCivZ2Cv-94" value="Redefinir senha" style="ellipse;whiteSpace=wrap;html=1;labelBackgroundColor=none;strokeColor=#B9E0A5;" parent="1" vertex="1">
          <mxGeometry x="-1320" y="4669" width="90" height="70" as="geometry" />
        </mxCell>
        <mxCell id="Lj_GNJjV4m9-QCivZ2Cv-95" value="Verificação de pergunta de segurança" style="ellipse;whiteSpace=wrap;html=1;labelBackgroundColor=none;strokeColor=#B9E0A5;" parent="1" vertex="1">
          <mxGeometry x="-1227" y="4739" width="90" height="70" as="geometry" />
        </mxCell>
        <mxCell id="Lj_GNJjV4m9-QCivZ2Cv-112" style="edgeStyle=orthogonalEdgeStyle;rounded=0;orthogonalLoop=1;jettySize=auto;html=1;exitX=1;exitY=0.5;exitDx=0;exitDy=0;entryX=0;entryY=0.5;entryDx=0;entryDy=0;" parent="1" source="Lj_GNJjV4m9-QCivZ2Cv-100" target="Lj_GNJjV4m9-QCivZ2Cv-105" edge="1">
          <mxGeometry relative="1" as="geometry" />
        </mxCell>
        <mxCell id="Lj_GNJjV4m9-QCivZ2Cv-119" style="edgeStyle=orthogonalEdgeStyle;rounded=0;orthogonalLoop=1;jettySize=auto;html=1;exitX=1;exitY=1;exitDx=0;exitDy=0;entryX=0;entryY=0;entryDx=0;entryDy=0;" parent="1" source="Lj_GNJjV4m9-QCivZ2Cv-100" target="Lj_GNJjV4m9-QCivZ2Cv-106" edge="1">
          <mxGeometry relative="1" as="geometry" />
        </mxCell>
        <mxCell id="Lj_GNJjV4m9-QCivZ2Cv-100" value="Adquirir Licença" style="ellipse;whiteSpace=wrap;html=1;labelBackgroundColor=none;strokeColor=#B9E0A5;" parent="1" vertex="1">
          <mxGeometry x="-1285" y="4480.5" width="90" height="70" as="geometry" />
        </mxCell>
        <mxCell id="Lj_GNJjV4m9-QCivZ2Cv-107" style="edgeStyle=orthogonalEdgeStyle;rounded=0;orthogonalLoop=1;jettySize=auto;html=1;exitX=1;exitY=0.5;exitDx=0;exitDy=0;entryX=0;entryY=0.5;entryDx=0;entryDy=0;" parent="1" source="Lj_GNJjV4m9-QCivZ2Cv-101" target="Lj_GNJjV4m9-QCivZ2Cv-106" edge="1">
          <mxGeometry relative="1" as="geometry" />
        </mxCell>
        <mxCell id="Lj_GNJjV4m9-QCivZ2Cv-118" style="edgeStyle=orthogonalEdgeStyle;rounded=0;orthogonalLoop=1;jettySize=auto;html=1;exitX=1;exitY=0;exitDx=0;exitDy=0;entryX=0;entryY=1;entryDx=0;entryDy=0;" parent="1" source="Lj_GNJjV4m9-QCivZ2Cv-101" target="Lj_GNJjV4m9-QCivZ2Cv-105" edge="1">
          <mxGeometry relative="1" as="geometry">
            <Array as="points">
              <mxPoint x="-1208" y="4559" />
              <mxPoint x="-1110" y="4559" />
              <mxPoint x="-1110" y="4527" />
            </Array>
          </mxGeometry>
        </mxCell>
        <mxCell id="Lj_GNJjV4m9-QCivZ2Cv-101" value="Renovar Licença" style="ellipse;whiteSpace=wrap;html=1;labelBackgroundColor=none;strokeColor=#B9E0A5;" parent="1" vertex="1">
          <mxGeometry x="-1285" y="4581" width="90" height="70" as="geometry" />
        </mxCell>
        <mxCell id="Lj_GNJjV4m9-QCivZ2Cv-115" style="edgeStyle=orthogonalEdgeStyle;rounded=0;orthogonalLoop=1;jettySize=auto;html=1;exitX=1;exitY=0.5;exitDx=0;exitDy=0;" parent="1" source="Lj_GNJjV4m9-QCivZ2Cv-105" target="Lj_GNJjV4m9-QCivZ2Cv-90" edge="1">
          <mxGeometry relative="1" as="geometry" />
        </mxCell>
        <mxCell id="Lj_GNJjV4m9-QCivZ2Cv-105" value="Cotas de serviços automaticas" style="ellipse;whiteSpace=wrap;html=1;labelBackgroundColor=none;dashed=1;strokeColor=#B9E0A5;" parent="1" vertex="1">
          <mxGeometry x="-1073.5" y="4459" width="96" height="80" as="geometry" />
        </mxCell>
        <mxCell id="Lj_GNJjV4m9-QCivZ2Cv-117" style="edgeStyle=orthogonalEdgeStyle;rounded=0;orthogonalLoop=1;jettySize=auto;html=1;exitX=1;exitY=0.5;exitDx=0;exitDy=0;" parent="1" source="Lj_GNJjV4m9-QCivZ2Cv-106" target="Lj_GNJjV4m9-QCivZ2Cv-90" edge="1">
          <mxGeometry relative="1" as="geometry">
            <Array as="points">
              <mxPoint x="-900" y="4634" />
              <mxPoint x="-900" y="4559" />
            </Array>
          </mxGeometry>
        </mxCell>
        <mxCell id="Lj_GNJjV4m9-QCivZ2Cv-106" value="Cotas de relatorios automaticas" style="ellipse;whiteSpace=wrap;html=1;labelBackgroundColor=none;dashed=1;strokeColor=#B9E0A5;" parent="1" vertex="1">
          <mxGeometry x="-1076" y="4594" width="100" height="80" as="geometry" />
        </mxCell>
      </root>
    </mxGraphModel>
  </diagram>
</mxfile>
